<svg width="1300" height="500" viewBox="0 0 1300 500" fill="none" xmlns="http://www.w3.org/2000/svg">
<rect x="0.5" y="0.5" width="1299" height="499" fill="white"/>
<rect x="0.5" y="0.5" width="1299" height="499" stroke="black"/>
<rect x="5.5" y="5.5" width="1289" height="489" fill="white" stroke="black" stroke-dasharray="6 6"/>
<path d="M594.509 469.864V467.32H598.941V479H596.093V469.864H594.509ZM604.108 470.616C604.151 469.475 604.524 468.595 605.228 467.976C605.932 467.357 606.887 467.048 608.092 467.048C608.892 467.048 609.575 467.187 610.14 467.464C610.716 467.741 611.148 468.12 611.436 468.6C611.735 469.08 611.884 469.619 611.884 470.216C611.884 470.92 611.708 471.496 611.356 471.944C611.004 472.381 610.594 472.68 610.124 472.84V472.904C610.732 473.107 611.212 473.443 611.564 473.912C611.916 474.381 612.092 474.984 612.092 475.72C612.092 476.381 611.938 476.968 611.628 477.48C611.33 477.981 610.887 478.376 610.3 478.664C609.724 478.952 609.036 479.096 608.236 479.096C606.956 479.096 605.932 478.781 605.164 478.152C604.407 477.523 604.007 476.573 603.964 475.304H606.62C606.631 475.773 606.764 476.147 607.02 476.424C607.276 476.691 607.65 476.824 608.14 476.824C608.556 476.824 608.876 476.707 609.1 476.472C609.335 476.227 609.452 475.907 609.452 475.512C609.452 475 609.287 474.632 608.956 474.408C608.636 474.173 608.119 474.056 607.404 474.056H606.892V471.832H607.404C607.948 471.832 608.386 471.741 608.716 471.56C609.058 471.368 609.228 471.032 609.228 470.552C609.228 470.168 609.122 469.869 608.908 469.656C608.695 469.443 608.402 469.336 608.028 469.336C607.623 469.336 607.319 469.459 607.116 469.704C606.924 469.949 606.812 470.253 606.78 470.616H604.108ZM616.9 473C616.9 471.165 617.252 469.72 617.956 468.664C618.67 467.608 619.817 467.08 621.396 467.08C622.974 467.08 624.116 467.608 624.82 468.664C625.534 469.72 625.892 471.165 625.892 473C625.892 474.856 625.534 476.312 624.82 477.368C624.116 478.424 622.974 478.952 621.396 478.952C619.817 478.952 618.67 478.424 617.956 477.368C617.252 476.312 616.9 474.856 616.9 473ZM623.204 473C623.204 471.923 623.086 471.096 622.852 470.52C622.617 469.933 622.132 469.64 621.396 469.64C620.66 469.64 620.174 469.933 619.94 470.52C619.705 471.096 619.588 471.923 619.588 473C619.588 473.725 619.63 474.328 619.716 474.808C619.801 475.277 619.972 475.661 620.228 475.96C620.494 476.248 620.884 476.392 621.396 476.392C621.908 476.392 622.292 476.248 622.548 475.96C622.814 475.661 622.99 475.277 623.076 474.808C623.161 474.328 623.204 473.725 623.204 473ZM630.537 473C630.537 471.165 630.889 469.72 631.593 468.664C632.308 467.608 633.455 467.08 635.033 467.08C636.612 467.08 637.753 467.608 638.457 468.664C639.172 469.72 639.529 471.165 639.529 473C639.529 474.856 639.172 476.312 638.457 477.368C637.753 478.424 636.612 478.952 635.033 478.952C633.455 478.952 632.308 478.424 631.593 477.368C630.889 476.312 630.537 474.856 630.537 473ZM636.841 473C636.841 471.923 636.724 471.096 636.489 470.52C636.255 469.933 635.769 469.64 635.033 469.64C634.297 469.64 633.812 469.933 633.577 470.52C633.343 471.096 633.225 471.923 633.225 473C633.225 473.725 633.268 474.328 633.353 474.808C633.439 475.277 633.609 475.661 633.865 475.96C634.132 476.248 634.521 476.392 635.033 476.392C635.545 476.392 635.929 476.248 636.185 475.96C636.452 475.661 636.628 475.277 636.713 474.808C636.799 474.328 636.841 473.725 636.841 473ZM656.317 479L654.605 476.52L653.165 479H650.205L653.149 474.44L650.125 470.072H653.197L654.909 472.536L656.349 470.072H659.309L656.317 474.568L659.389 479H656.317ZM678.186 469.704H673.194V471.912C673.408 471.677 673.706 471.485 674.09 471.336C674.474 471.187 674.89 471.112 675.338 471.112C676.138 471.112 676.8 471.293 677.322 471.656C677.856 472.019 678.245 472.488 678.49 473.064C678.736 473.64 678.858 474.264 678.858 474.936C678.858 476.184 678.506 477.176 677.802 477.912C677.098 478.637 676.106 479 674.826 479C673.973 479 673.232 478.856 672.602 478.568C671.973 478.269 671.488 477.859 671.146 477.336C670.805 476.813 670.618 476.211 670.586 475.528H673.258C673.322 475.859 673.477 476.136 673.722 476.36C673.968 476.573 674.304 476.68 674.73 476.68C675.232 476.68 675.605 476.52 675.85 476.2C676.096 475.88 676.218 475.453 676.218 474.92C676.218 474.397 676.09 473.997 675.834 473.72C675.578 473.443 675.205 473.304 674.714 473.304C674.352 473.304 674.053 473.395 673.818 473.576C673.584 473.747 673.429 473.976 673.354 474.264H670.714V467.304H678.186V469.704ZM683.568 473C683.568 471.165 683.92 469.72 684.624 468.664C685.339 467.608 686.486 467.08 688.064 467.08C689.643 467.08 690.784 467.608 691.488 468.664C692.203 469.72 692.56 471.165 692.56 473C692.56 474.856 692.203 476.312 691.488 477.368C690.784 478.424 689.643 478.952 688.064 478.952C686.486 478.952 685.339 478.424 684.624 477.368C683.92 476.312 683.568 474.856 683.568 473ZM689.872 473C689.872 471.923 689.755 471.096 689.52 470.52C689.286 469.933 688.8 469.64 688.064 469.64C687.328 469.64 686.843 469.933 686.608 470.52C686.374 471.096 686.256 471.923 686.256 473C686.256 473.725 686.299 474.328 686.384 474.808C686.47 475.277 686.64 475.661 686.896 475.96C687.163 476.248 687.552 476.392 688.064 476.392C688.576 476.392 688.96 476.248 689.216 475.96C689.483 475.661 689.659 475.277 689.744 474.808C689.83 474.328 689.872 473.725 689.872 473ZM697.206 473C697.206 471.165 697.558 469.72 698.262 468.664C698.977 467.608 700.123 467.08 701.702 467.08C703.281 467.08 704.422 467.608 705.126 468.664C705.841 469.72 706.198 471.165 706.198 473C706.198 474.856 705.841 476.312 705.126 477.368C704.422 478.424 703.281 478.952 701.702 478.952C700.123 478.952 698.977 478.424 698.262 477.368C697.558 476.312 697.206 474.856 697.206 473ZM703.51 473C703.51 471.923 703.393 471.096 703.158 470.52C702.923 469.933 702.438 469.64 701.702 469.64C700.966 469.64 700.481 469.933 700.246 470.52C700.011 471.096 699.894 471.923 699.894 473C699.894 473.725 699.937 474.328 700.022 474.808C700.107 475.277 700.278 475.661 700.534 475.96C700.801 476.248 701.19 476.392 701.702 476.392C702.214 476.392 702.598 476.248 702.854 475.96C703.121 475.661 703.297 475.277 703.382 474.808C703.467 474.328 703.51 473.725 703.51 473Z" fill="#272643"/>
<path d="M376.944 368H370.104L358.664 350.68V368H351.824V339.92H358.664L370.104 357.32V339.92H376.944V368ZM403.182 368.28C400.542 368.28 398.115 367.667 395.902 366.44C393.715 365.213 391.969 363.507 390.662 361.32C389.382 359.107 388.742 356.627 388.742 353.88C388.742 351.133 389.382 348.667 390.662 346.48C391.969 344.293 393.715 342.587 395.902 341.36C398.115 340.133 400.542 339.52 403.182 339.52C405.822 339.52 408.235 340.133 410.422 341.36C412.635 342.587 414.369 344.293 415.622 346.48C416.902 348.667 417.542 351.133 417.542 353.88C417.542 356.627 416.902 359.107 415.622 361.32C414.342 363.507 412.609 365.213 410.422 366.44C408.235 367.667 405.822 368.28 403.182 368.28ZM403.182 362.04C405.422 362.04 407.209 361.293 408.542 359.8C409.902 358.307 410.582 356.333 410.582 353.88C410.582 351.4 409.902 349.427 408.542 347.96C407.209 346.467 405.422 345.72 403.182 345.72C400.915 345.72 399.102 346.453 397.742 347.92C396.409 349.387 395.742 351.373 395.742 353.88C395.742 356.36 396.409 358.347 397.742 359.84C399.102 361.307 400.915 362.04 403.182 362.04ZM461.147 339.92V368H454.307V351.16L448.027 368H442.507L436.187 351.12V368H429.347V339.92H437.427L445.307 359.36L453.107 339.92H461.147ZM491.066 353.6C492.693 353.947 493.999 354.76 494.986 356.04C495.973 357.293 496.466 358.733 496.466 360.36C496.466 362.707 495.639 364.573 493.986 365.96C492.359 367.32 490.079 368 487.146 368H474.066V339.92H486.706C489.559 339.92 491.786 340.573 493.386 341.88C495.013 343.187 495.826 344.96 495.826 347.2C495.826 348.853 495.386 350.227 494.506 351.32C493.653 352.413 492.506 353.173 491.066 353.6ZM480.906 351.28H485.386C486.506 351.28 487.359 351.04 487.946 350.56C488.559 350.053 488.866 349.32 488.866 348.36C488.866 347.4 488.559 346.667 487.946 346.16C487.359 345.653 486.506 345.4 485.386 345.4H480.906V351.28ZM485.946 362.48C487.093 362.48 487.973 362.227 488.586 361.72C489.226 361.187 489.546 360.427 489.546 359.44C489.546 358.453 489.213 357.68 488.546 357.12C487.906 356.56 487.013 356.28 485.866 356.28H480.906V362.48H485.946ZM522.753 368L516.913 357.4H515.273V368H508.433V339.92H519.913C522.126 339.92 524.006 340.307 525.553 341.08C527.126 341.853 528.3 342.92 529.073 344.28C529.846 345.613 530.233 347.107 530.233 348.76C530.233 350.627 529.7 352.293 528.633 353.76C527.593 355.227 526.046 356.267 523.993 356.88L530.473 368H522.753ZM515.273 352.56H519.513C520.766 352.56 521.7 352.253 522.313 351.64C522.953 351.027 523.273 350.16 523.273 349.04C523.273 347.973 522.953 347.133 522.313 346.52C521.7 345.907 520.766 345.6 519.513 345.6H515.273V352.56ZM549.367 345.4V351.08H558.527V356.36H549.367V362.52H559.727V368H542.527V339.92H559.727V345.4H549.367ZM599.164 339.92C602.124 339.92 604.711 340.507 606.924 341.68C609.137 342.853 610.844 344.507 612.044 346.64C613.271 348.747 613.884 351.187 613.884 353.96C613.884 356.707 613.271 359.147 612.044 361.28C610.844 363.413 609.124 365.067 606.884 366.24C604.671 367.413 602.097 368 599.164 368H588.644V339.92H599.164ZM598.724 362.08C601.311 362.08 603.324 361.373 604.764 359.96C606.204 358.547 606.924 356.547 606.924 353.96C606.924 351.373 606.204 349.36 604.764 347.92C603.324 346.48 601.311 345.76 598.724 345.76H595.484V362.08H598.724ZM632.547 345.4V351.08H641.707V356.36H632.547V362.52H642.907V368H625.707V339.92H642.907V345.4H632.547ZM693.224 348.96C693.224 350.587 692.85 352.08 692.104 353.44C691.357 354.773 690.21 355.853 688.664 356.68C687.117 357.507 685.197 357.92 682.904 357.92H678.664V368H671.824V339.92H682.904C685.144 339.92 687.037 340.307 688.584 341.08C690.13 341.853 691.29 342.92 692.064 344.28C692.837 345.64 693.224 347.2 693.224 348.96ZM682.384 352.48C683.69 352.48 684.664 352.173 685.304 351.56C685.944 350.947 686.264 350.08 686.264 348.96C686.264 347.84 685.944 346.973 685.304 346.36C684.664 345.747 683.69 345.44 682.384 345.44H678.664V352.48H682.384ZM719.105 368L713.265 357.4H711.625V368H704.785V339.92H716.265C718.478 339.92 720.358 340.307 721.905 341.08C723.478 341.853 724.651 342.92 725.425 344.28C726.198 345.613 726.585 347.107 726.585 348.76C726.585 350.627 726.051 352.293 724.985 353.76C723.945 355.227 722.398 356.267 720.345 356.88L726.825 368H719.105ZM711.625 352.56H715.865C717.118 352.56 718.051 352.253 718.665 351.64C719.305 351.027 719.625 350.16 719.625 349.04C719.625 347.973 719.305 347.133 718.665 346.52C718.051 345.907 717.118 345.6 715.865 345.6H711.625V352.56ZM752.158 368.28C749.518 368.28 747.092 367.667 744.878 366.44C742.692 365.213 740.945 363.507 739.638 361.32C738.358 359.107 737.718 356.627 737.718 353.88C737.718 351.133 738.358 348.667 739.638 346.48C740.945 344.293 742.692 342.587 744.878 341.36C747.092 340.133 749.518 339.52 752.158 339.52C754.798 339.52 757.212 340.133 759.398 341.36C761.612 342.587 763.345 344.293 764.598 346.48C765.878 348.667 766.518 351.133 766.518 353.88C766.518 356.627 765.878 359.107 764.598 361.32C763.318 363.507 761.585 365.213 759.398 366.44C757.212 367.667 754.798 368.28 752.158 368.28ZM752.158 362.04C754.398 362.04 756.185 361.293 757.518 359.8C758.878 358.307 759.558 356.333 759.558 353.88C759.558 351.4 758.878 349.427 757.518 347.96C756.185 346.467 754.398 345.72 752.158 345.72C749.892 345.72 748.078 346.453 746.718 347.92C745.385 349.387 744.718 351.373 744.718 353.88C744.718 356.36 745.385 358.347 746.718 359.84C748.078 361.307 749.892 362.04 752.158 362.04ZM788.844 339.92C791.804 339.92 794.39 340.507 796.604 341.68C798.817 342.853 800.524 344.507 801.724 346.64C802.95 348.747 803.564 351.187 803.564 353.96C803.564 356.707 802.95 359.147 801.724 361.28C800.524 363.413 798.804 365.067 796.564 366.24C794.35 367.413 791.777 368 788.844 368H778.324V339.92H788.844ZM788.404 362.08C790.99 362.08 793.004 361.373 794.444 359.96C795.884 358.547 796.604 356.547 796.604 353.96C796.604 351.373 795.884 349.36 794.444 347.92C793.004 346.48 790.99 345.76 788.404 345.76H785.164V362.08H788.404ZM822.106 339.92V356.72C822.106 358.4 822.52 359.693 823.346 360.6C824.173 361.507 825.386 361.96 826.986 361.96C828.586 361.96 829.813 361.507 830.666 360.6C831.52 359.693 831.946 358.4 831.946 356.72V339.92H838.786V356.68C838.786 359.187 838.253 361.307 837.186 363.04C836.12 364.773 834.68 366.08 832.866 366.96C831.08 367.84 829.08 368.28 826.866 368.28C824.653 368.28 822.666 367.853 820.906 367C819.173 366.12 817.8 364.813 816.786 363.08C815.773 361.32 815.266 359.187 815.266 356.68V339.92H822.106ZM850.429 353.92C850.429 351.147 851.029 348.68 852.229 346.52C853.429 344.333 855.096 342.64 857.229 341.44C859.389 340.213 861.829 339.6 864.549 339.6C867.883 339.6 870.736 340.48 873.109 342.24C875.483 344 877.069 346.4 877.869 349.44H870.349C869.789 348.267 868.989 347.373 867.949 346.76C866.936 346.147 865.776 345.84 864.469 345.84C862.363 345.84 860.656 346.573 859.349 348.04C858.043 349.507 857.389 351.467 857.389 353.92C857.389 356.373 858.043 358.333 859.349 359.8C860.656 361.267 862.363 362 864.469 362C865.776 362 866.936 361.693 867.949 361.08C868.989 360.467 869.789 359.573 870.349 358.4H877.869C877.069 361.44 875.483 363.84 873.109 365.6C870.736 367.333 867.883 368.2 864.549 368.2C861.829 368.2 859.389 367.6 857.229 366.4C855.096 365.173 853.429 363.48 852.229 361.32C851.029 359.16 850.429 356.693 850.429 353.92ZM910.258 339.92V345.4H902.818V368H895.978V345.4H888.538V339.92H910.258ZM934.971 368.28C932.331 368.28 929.904 367.667 927.691 366.44C925.504 365.213 923.758 363.507 922.451 361.32C921.171 359.107 920.531 356.627 920.531 353.88C920.531 351.133 921.171 348.667 922.451 346.48C923.758 344.293 925.504 342.587 927.691 341.36C929.904 340.133 932.331 339.52 934.971 339.52C937.611 339.52 940.024 340.133 942.211 341.36C944.424 342.587 946.158 344.293 947.411 346.48C948.691 348.667 949.331 351.133 949.331 353.88C949.331 356.627 948.691 359.107 947.411 361.32C946.131 363.507 944.398 365.213 942.211 366.44C940.024 367.667 937.611 368.28 934.971 368.28ZM934.971 362.04C937.211 362.04 938.998 361.293 940.331 359.8C941.691 358.307 942.371 356.333 942.371 353.88C942.371 351.4 941.691 349.427 940.331 347.96C938.998 346.467 937.211 345.72 934.971 345.72C932.704 345.72 930.891 346.453 929.531 347.92C928.198 349.387 927.531 351.373 927.531 353.88C927.531 356.36 928.198 358.347 929.531 359.84C930.891 361.307 932.704 362.04 934.971 362.04Z" fill="#333333"/>
<rect x="544.5" y="117.5" width="199" height="199" fill="#DDDDDD" stroke="black" stroke-dasharray="9 9"/>
</svg>
